{"title":"Tony Rome(1967)MP-4[DaScubaDude]","uid":12358906,"size":1348824297,"categoryP":"video","categoryS":"movies","magnet":"?xt=urn:btih:e69b2d04c8341eaace6b648ae4d82bdc8dc1e746&amp;dn=Tony+Rome%281967%29MP-4%5BDaScubaDude%5D&amp;tr=udp%3A%2F%2Ftracker.openbittorrent.com%3A80&amp;tr=udp%3A%2F%2Fopen.demonii.com%3A1337&amp;tr=udp%3A%2F%2Ftracker.coppersurfer.tk%3A6969&amp;tr=udp%3A%2F%2Fexodus.desync.com%3A6969","seeders":0,"leechers":0,"uploader":"dascuba","files":1,"time":1441506851,"description":"Tony Rome (1967)\n110 min  |  Crime, Drama, Mystery  |  10 November 1967 (USA)\n6.5 Your rating:   -/10   Ratings: 6.5/10 from 1,462 users   \nReviews: 33 user | 12 critic\nTony Rome, a tough Miami PI living on a houseboat, is hired by a local millionaire to find jewelry stolen from his daughter, and in the process has several encounters with local hoods as well as the Miami Beach PD.\n\nDirector: Gordon Douglas\nWriters: Marvin H. Albert (novel), Richard L. Breen (screenplay) (as Richard Breen)\nStars: Frank Sinatra, Jill St. John, Richard Conte |\n\nGeneral\nComplete name                            : C:Tony RomeTONYROME_Title1.mp4\nFormat                                   : MPEG-4\nFormat profile                           : Base Media\nCodec ID                                 : isom\nFile size                                : 1.26 GiB\nDuration                                 : 1h 50mn\nOverall bit rate mode                    : Constant\nOverall bit rate                         : 1 634 Kbps\nMovie name                               : TONYROME\nGenre                                    : Mystery\nWriting application                      : Lavf54.6.100\n\nVideo\nID                                       : 1\nFormat                                   : MPEG-4 Visual\nFormat settings, BVOP                    : No\nFormat settings, QPel                    : No\nFormat settings, GMC                     : No warppoints\nFormat settings, Matrix                  : Default (H.263)\nCodec ID                                 : 20\nDuration                                 : 1h 50mn\nBit rate mode                            : Constant\nBit rate                                 : 1 501 Kbps\nWidth                                    : 720 pixels\nHeight                                   : 404 pixels\nDisplay aspect ratio                     : 16:9\nFrame rate mode                          : Constant\nFrame rate                               : 29.970 fps\nColor space                              : YUV\nChroma subsampling                       : 4:2:0\nBit depth                                : 8 bits\nScan type                                : Progressive\nCompression mode                         : Lossy\nBits/(Pixel*Frame)                       : 0.172\nStream size                              : 1.15 GiB (92%)\nWriting library                          : Lavc54.23.100\n\nAudio\nID                                       : 2\nFormat                                   : MPEG Audio\nFormat version                           : Version 1\nFormat profile                           : Layer 3\nCodec ID                                 : 6B\nDuration                                 : 1h 50mn\nBit rate mode                            : Constant\nBit rate                                 : 128 Kbps\nChannel(s)                               : 2 channels\nSampling rate                            : 44.1 KHz\nCompression mode                         : Lossy\nStream size                              : 101 MiB (8%)\nWriting library                          : LAME3.99.5","torrent":{"xt":"urn:btih:e69b2d04c8341eaace6b648ae4d82bdc8dc1e746","amp;dn":"Tony+Rome%281967%29MP-4%5BDaScubaDude%5D","amp;tr":["udp%3A%2F%2Ftracker.openbittorrent.com%3A80","udp%3A%2F%2Fopen.demonii.com%3A1337","udp%3A%2F%2Ftracker.coppersurfer.tk%3A6969","udp%3A%2F%2Fexodus.desync.com%3A6969"],"infoHash":"e69b2d04c8341eaace6b648ae4d82bdc8dc1e746","infoHashBuffer":{"type":"Buffer","data":[230,155,45,4,200,52,30,170,206,107,100,138,228,216,43,220,141,193,231,70]},"announce":[],"urlList":[]}}